<?xml version="1.0" encoding="UTF-8"?><svg id="Layer_1" xmlns="http://www.w3.org/2000/svg" viewBox="0 0 43.81 63"><defs><style>.cls-1{fill:#f39c2e;}.cls-2{fill:#f49823;}.cls-3{fill:#fffefd;}.cls-4{fill:#f39a2d;}.cls-5{fill:#f39b2c;}.cls-6{fill:#fefcfa;}.cls-7{fill:#59595b;}.cls-8{fill:#5c5c5e;}.cls-9{fill:#5a5a5c;}.cls-10{fill:#777779;}</style></defs><path class="cls-2" d="M8.19,38.24c.13-1.73,.2-3.19,.37-4.65,.08-.74-.19-1.22-.74-1.74C-2.31,22.35,2.36,6.81,16.4,3.23c10.58-2.7,22.1,3.92,23.68,13.77,1.7,10.58-6.42,18.63-15.81,19.78-2.71,.33-5.35,.34-7.92-.42-1.7-.51-3.18-.51-4.72,.37-.98,.56-2.09,.93-3.45,1.52Z"/><path class="cls-7" d="M22.33,62.69h-2.02s-.45-4.74-.63-6.71c-.11-1.16-.18-2.33-.3-3.49-.15-1.53,.78-2.52,2.51-2.57,.95-.03,1.9,0,2.85,0,.8,.01,1-.23,.61-.91-.98-1.69-3.54-2.87-5.64-2.68-.75,.07-.68,.41-.77,.88-.38,1.97-.23,3.95-.33,5.93-.03,.69-.04,1.44-1.01,1.49-1.09,.05-.97-.77-.97-1.42-.01-2.8-.04-5.59-.01-8.39,.02-2.21,.97-3.05,3.35-3.05,6.11,0,10.69,3.49,11.7,8.93,.28,1.51-.65,2.56-2.41,2.61-1.51,.05-3.04,.14-4.53-.02-1.71-.1-2.05,.51-2.05,1.9"/><path class="cls-9" d="M25.15,60.31c-.07-.12-.13-.25-.2-.37l3.77-1.83v-2.14c-1.91-.2-3.37-.31-5.72-.61-.17-.02-.16-.57,0-.61,1.35-.31,4.38-.31,6.06-.61,2.86-.52,3.73-.72,3.73-3.31,0-1.93,0-3.86-.03-5.79-.01-.8,.21-1.53,1.17-1.54,.99-.02,1.18,.75,1.18,1.53,0,2.08,.03,4.17,.02,6.25,0,1.34-.39,1.98-.73,2.47-1.31,1.87-4.07,2.16-5,2.22v2.14c1.23,.61,2.81,1.22,4.04,1.84v.31s-.22-.1-.34,0c-1.12-.41-2.58-.82-3.7-1.22v1.22h-.67v-1.22"/><path class="cls-8" d="M.44,62.98c-.55-.46-.41-.94-.41-1.38-.01-4.07,.03-8.15-.04-12.22-.02-1.07,.35-1.39,1.52-1.37,4.2,.06,8.4,.02,12.61,.04,.4,0,1.07-.22,1.12,.34,.06,.7-.68,.52-1.12,.53-3.92,.02-7.85,.07-11.77-.02-1.3-.03-1.58,.34-1.55,1.45,.08,3.67,.04,7.33,.02,11,0,.52,.23,1.1-.38,1.63Z"/><path class="cls-9" d="M15.7,44.32c-.03,1.38-1.17,2.43-2.65,2.43-1.42,0-2.6-1.13-2.58-2.47,.01-1.38,1.14-2.4,2.64-2.39,1.48,.01,2.62,1.08,2.59,2.44Z"/><path class="cls-10" d="M1.39,41.92c.55,1.31,1.18,2.61,1.63,3.95,.31,.93,.8,1.29,1.89,1.23,1.63-.09,3.26-.02,4.89-.02v.55c-2.1,0-4.21,.01-6.32-.02-.17,0-.41-.34-.5-.55-.68-1.64-1.33-3.29-1.99-4.94l.39-.19Z"/><path class="cls-1" d="M42.76,7.97c.52,.02,.99-.03,1.04,.45,.06,.53-.49,.47-.83,.51-1.31,.18-2.63,.34-3.95,.5-.38,.05-.72-.11-.8-.41-.14-.48,.33-.57,.71-.64,1.31-.23,2.67,.01,3.83-.41Z"/><path class="cls-4" d="M37.04,6.36s-.07-.14-.16-.33c-.1-.22,0-.4,.18-.52,1.2-.8,2.4-1.59,3.62-2.37,.24-.15,.55-.16,.75,.06,.08,.09,.05,.28,.02,.42-.08,.28-3.78,2.78-4.4,2.74Z"/><path class="cls-5" d="M36.89,.61c-.65,1.28-1.29,2.56-1.97,3.82-.06,.11-.43,.18-.59,.12-.3-.11-.3-.43-.2-.66,.56-1.21,1.15-2.4,1.74-3.6,.13-.26,.42-.37,.69-.23,.15,.08,.2,.32,.33,.55Z"/><path class="cls-3" d="M23.96,14.72c.22,2.39-.69,4.86-1.2,7.39-.15,.77-.59,.96-1.38,.96-.84,0-1.25-.2-1.49-1.04-.89-3.15-1.42-6.32-1.26-9.59,.06-1.12,.49-1.51,1.71-1.49,4.05,.09,3.58-.49,3.61,3.77Z"/><path class="cls-6" d="M21.25,24.72c2.82,.04,2.44-.41,2.48,2.59,.02,2.01,0,2.01-2.72,2q-2.33,0-2.32-2.53c0-2.41-.15-2.03,2.57-2.06Z"/><ellipse class="cls-7" cx="25.02" cy="62.08" rx="1.01" ry=".92"/><ellipse class="cls-7" cx="29.06" cy="62.08" rx="1.01" ry=".92"/><ellipse class="cls-7" cx="33.1" cy="62.08" rx="1.01" ry=".92"/></svg>